<svg xmlns="http://www.w3.org/2000/svg" width="236" height="325" fill="none" viewBox="0 0 236 325"><path fill="#1C3343" d="M160.208 70.8139L160.688 70.6393C160.954 70.5429 161.247 70.6798 161.344 70.9452L172.786 102.334C172.883 102.599 172.746 102.893 172.481 102.989L172.001 103.164L160.208 70.8139Z"/><path fill="#1C3343" d="M40.8921 158.427L40.4117 158.601C40.1463 158.698 39.8528 158.561 39.7561 158.295L32.8674 139.398C32.7706 139.133 32.9073 138.839 33.1727 138.743L33.6531 138.568L40.8921 158.427Z"/><path fill="#213744" d="M31.3179 132.162L30.8374 132.337C30.5721 132.433 30.2786 132.297 30.1819 132.031L23.2931 113.134C23.1964 112.869 23.3331 112.575 23.5984 112.479L24.0789 112.304L31.3179 132.162Z"/><path fill="#213744" d="M20.5762 102.695L20.0957 102.87C19.8304 102.966 19.5369 102.83 19.4402 102.564L16.0542 93.2756C15.9575 93.0103 16.0941 92.717 16.3595 92.6206L16.8399 92.446L20.5762 102.695Z"/><path fill="#213744" d="M11.5859 78.0327C8.76076 70.2826 7.34818 66.4076 7.22394 62.9013C6.97282 55.8148 10.1305 49.0398 15.7178 44.6771C18.4823 42.5185 22.3573 41.1103 30.1072 38.294L105.375 10.9411C113.125 8.12471 117 6.71653 120.507 6.59585C127.596 6.35195 134.376 9.51533 138.746 15.1051C140.908 17.8708 142.321 21.7458 145.146 29.4959L224.075 246.015C226.9 253.765 228.312 257.64 228.437 261.146C228.688 268.233 225.53 275.008 219.943 279.37C217.178 281.529 213.303 282.937 205.553 285.753L130.286 313.106C122.536 315.923 118.661 317.331 115.153 317.452C108.065 317.695 101.284 314.532 96.9142 308.942C94.752 306.177 93.3395 302.302 90.5143 294.552L11.5859 78.0327Z"/><path fill="#8EADC1" fill-rule="evenodd" d="M105.737 11.5355L30.213 38.9815C22.5574 41.7636 18.807 43.131 16.1383 45.2148C10.7229 49.4433 7.66238 56.0098 7.90577 62.8782C8.02572 66.2631 9.38946 70.0164 12.1802 77.6722L91.2021 294.447C93.9928 302.103 95.3645 305.853 97.4517 308.523C101.687 313.941 108.259 317.007 115.13 316.771C118.515 316.654 122.269 315.295 129.924 312.513L205.448 285.067C213.104 282.285 216.854 280.917 219.523 278.833C224.938 274.605 227.999 268.038 227.756 261.17C227.636 257.785 226.272 254.032 223.481 246.376L144.459 29.601C141.669 21.9452 140.297 18.1947 138.21 15.5248C133.974 10.1071 127.402 7.04103 120.532 7.27742C117.146 7.39392 113.393 8.75342 105.737 11.5355ZM7.56508 62.89C7.68742 66.3424 9.07826 70.1578 11.8599 77.7886L90.8818 294.564C93.6635 302.194 95.0543 306.01 97.1832 308.733C101.486 314.237 108.162 317.352 115.142 317.111C118.595 316.993 122.41 315.606 130.041 312.833L205.565 285.387C213.196 282.614 217.011 281.227 219.733 279.102C225.234 274.806 228.343 268.136 228.096 261.158C227.974 257.706 226.583 253.89 223.801 246.26L144.78 29.4846C141.998 21.8538 140.607 18.0383 138.478 15.3152C134.176 9.8114 127.499 6.69669 120.52 6.93684C117.066 7.05566 113.251 8.44218 105.62 11.2152L30.0963 38.6612C22.4656 41.4343 18.6503 42.8208 15.9282 44.9462C10.4269 49.2417 7.31783 55.9125 7.56508 62.89Z" clip-rule="evenodd"/><path fill="#121515" d="M12.9537 76.8102C10.3458 69.6563 9.04192 66.0793 8.92722 62.8427C8.69543 56.3013 11.6102 50.0475 16.7677 46.0204C19.3196 44.0279 22.8965 42.728 30.0502 40.1283L106.599 12.3098C113.753 9.71008 117.33 8.41022 120.567 8.29882C127.111 8.07369 133.37 10.9937 137.403 16.1535C139.399 18.7065 140.703 22.2834 143.311 29.4373L222.706 247.237C225.314 254.391 226.618 257.968 226.733 261.205C226.965 267.746 224.05 274 218.892 278.027C216.341 280.02 212.764 281.319 205.61 283.919L129.061 311.738C121.907 314.337 118.33 315.637 115.093 315.749C108.549 315.974 102.29 313.054 98.2566 307.894C96.2608 305.341 94.9569 301.764 92.3491 294.61L12.9537 76.8102Z"/><rect width="2.045" height="1.705" fill="#36454C" transform="matrix(0.939862 -0.341553 0.342488 0.939522 106.015 10.7084)"/><rect width="1.704" height="2.045" fill="#36454C" transform="matrix(0.939862 -0.341553 0.342488 0.939522 142.96 28.4765)"/><rect width="1.704" height="2.045" fill="#36454C" transform="matrix(0.939862 -0.341553 0.342488 0.939522 11.001 76.4313)"/><rect width="1.704" height="2.046" fill="#36454C" transform="matrix(0.939862 -0.341553 0.342488 0.939522 90.3965 294.231)"/><rect width="1.704" height="2.046" fill="#36454C" transform="matrix(0.939862 -0.341553 0.342488 0.939522 222.355 246.276)"/><rect width="2.045" height="1.705" fill="#36454C" transform="matrix(0.939862 -0.341553 0.342488 0.939522 127.139 312.436)"/><mask id="mask0_1612_2304" width="209" height="298" x="13" y="13" maskUnits="userSpaceOnUse" style="mask-type:alpha"><path fill="#C4C4C4" d="M38.2969 45.8366L37.7715 44.3953C37.4169 43.4224 36.3407 42.9203 35.3678 43.2738L31.2423 44.773C24.7931 47.1167 21.5684 48.2886 19.3509 50.195C15.8654 53.1915 13.8377 57.5421 13.7838 62.1396C13.7496 65.0646 14.9251 68.2893 17.2761 74.7386L96.9938 293.423C99.3448 299.872 100.52 303.097 102.43 305.315C105.431 308.803 109.785 310.834 114.384 310.893C117.31 310.93 120.535 309.758 126.984 307.414L204.417 279.275C210.866 276.931 214.091 275.759 216.308 273.853C219.794 270.856 221.821 266.505 221.875 261.908C221.91 258.983 220.734 255.758 218.383 249.309L138.665 30.6249C136.314 24.1755 135.139 20.9508 133.229 18.7321C130.228 15.2449 125.874 13.2135 121.275 13.155C118.349 13.1178 115.124 14.2896 108.675 16.6333L104.55 18.1326C103.577 18.4861 103.076 19.5614 103.43 20.5343L103.956 21.9757L103.933 21.9833L104.014 22.1358C105.401 25.939 103.442 30.1425 99.6384 31.5246L47.7517 50.3806C43.9485 51.7627 39.7416 49.8 38.3552 45.9968L38.3195 45.8276L38.2969 45.8366Z"/></mask><g mask="url(#mask0_1612_2304)"><rect width="129.156" height="279.548" transform="matrix(0.939862 -0.341553 0.342488 0.939522 9.26416 52.7601)"/></g><path fill="#262C2D" fill-rule="evenodd" d="M86.0237 32.4825C87.4388 31.9683 88.1678 30.4042 87.6519 28.989C87.1361 27.5739 85.5707 26.8436 84.1556 27.3578C82.7404 27.8721 82.0115 29.4362 82.5273 30.8514C83.0432 32.2665 84.6086 32.9968 86.0237 32.4825Z" clip-rule="evenodd"/><path fill="#121515" fill-rule="evenodd" d="M85.6733 31.5217C86.5578 31.2002 87.0134 30.2227 86.691 29.3382C86.3686 28.4537 85.3902 27.9973 84.5057 28.3187C83.6213 28.6401 83.1657 29.6177 83.4881 30.5022C83.8105 31.3866 84.7889 31.8431 85.6733 31.5217Z" clip-rule="evenodd"/><path fill="#636F73" fill-rule="evenodd" d="M84.9727 29.5999C85.1496 29.5356 85.2408 29.3401 85.1763 29.1632C85.1118 28.9863 84.9161 28.895 84.7392 28.9593C84.5623 29.0236 84.4712 29.2191 84.5357 29.396C84.6002 29.5729 84.7959 29.6642 84.9727 29.5999Z" clip-rule="evenodd" opacity=".4"/><path fill="#262C2D" fill-rule="evenodd" d="M63.6301 37.7187C63.4366 37.188 63.7101 36.6014 64.241 36.4085L78.0127 31.4037C78.5436 31.2108 79.1307 31.4846 79.3242 32.0153C79.5176 32.546 79.2441 33.1326 78.7132 33.3255L64.9416 38.3302C64.4107 38.5232 63.8235 38.2494 63.6301 37.7187Z" clip-rule="evenodd"/></svg>